<svg width="1280" height="640" viewBox="0 0 1280 640" fill="none" xmlns="http://www.w3.org/2000/svg">
  <rect width="1280" height="640" fill="#EEF4FF"/>
  <rect x="0" y="0" width="1280" height="640" fill="url(#bgGlow)"/>
  <rect x="72" y="72" width="1136" height="496" rx="36" fill="#FFFFFF"/>
  <rect x="72" y="72" width="1136" height="496" rx="36" stroke="#DCE7F8" stroke-width="2"/>
  <rect x="118" y="118" width="280" height="404" rx="28" fill="#0F172A"/>
  <rect x="144" y="146" width="228" height="126" rx="24" fill="#2563EB"/>
  <path d="M197 188C197 178.611 204.611 171 214 171H261.172C265.679 171 269.999 172.79 273.186 175.978L299.022 201.814C302.21 205.001 304 209.321 304 213.828V254C304 263.389 296.389 271 287 271H214C204.611 271 197 263.389 197 254V188Z" fill="white"/>
  <path d="M269 171V207C269 210.314 271.686 213 275 213H311" fill="#DBEAFE"/>
  <path d="M237 227H264" stroke="#2563EB" stroke-width="10" stroke-linecap="round"/>
  <path d="M250.5 211V243" stroke="#2563EB" stroke-width="10" stroke-linecap="round"/>
  <rect x="144" y="294" width="228" height="90" rx="22" fill="#111C34"/>
  <path d="M223 327L234.5 339.5L248 324" stroke="white" stroke-width="10" stroke-linecap="round" stroke-linejoin="round"/>
  <path d="M234.5 339V353" stroke="white" stroke-width="10" stroke-linecap="round"/>
  <path d="M212 353H257" stroke="white" stroke-width="10" stroke-linecap="round"/>
  <rect x="144" y="404" width="228" height="82" rx="20" fill="#1E293B" fill-opacity="0.88"/>
  <text x="174" y="438" fill="#BFDBFE" font-family="Segoe UI, Arial, sans-serif" font-size="18" font-weight="600">GitHub Pages</text>
  <text x="174" y="466" fill="#FFFFFF" font-family="Segoe UI, Arial, sans-serif" font-size="24" font-weight="700">Custom domain ready</text>
  <text x="456" y="228" fill="#0F172A" font-family="Segoe UI, Arial, sans-serif" font-size="92" font-weight="700">Secure Links</text>
  <text x="456" y="296" fill="#475569" font-family="Segoe UI, Arial, sans-serif" font-size="34" font-weight="500">Download page and link generator</text>
  <text x="456" y="356" fill="#2563EB" font-family="Segoe UI, Arial, sans-serif" font-size="30" font-weight="700">It Is Unique Official</text>
  <rect x="456" y="402" width="404" height="60" rx="16" fill="#EFF6FF"/>
  <text x="488" y="441" fill="#1D4ED8" font-family="Segoe UI, Arial, sans-serif" font-size="28" font-weight="700">sl.itisuniqueofficial.com</text>
  <text x="456" y="507" fill="#334155" font-family="Segoe UI, Arial, sans-serif" font-size="28" font-weight="500">Responsive Jekyll site with Giscus comments</text>
  <circle cx="1098" cy="170" r="64" fill="#DBEAFE"/>
  <circle cx="1098" cy="170" r="38" fill="#2563EB"/>
  <path d="M1098 146V194" stroke="white" stroke-width="12" stroke-linecap="round"/>
  <path d="M1076 172H1120" stroke="white" stroke-width="12" stroke-linecap="round"/>
  <circle cx="1148" cy="452" r="72" fill="#E0E7FF"/>
  <path d="M1122 452H1174" stroke="#1D4ED8" stroke-width="12" stroke-linecap="round"/>
  <path d="M1148 426V478" stroke="#1D4ED8" stroke-width="12" stroke-linecap="round"/>
  <defs>
    <radialGradient id="bgGlow" cx="0" cy="0" r="1" gradientUnits="userSpaceOnUse" gradientTransform="translate(1080 108) rotate(132.219) scale(776.176 889.177)">
      <stop stop-color="#DBEAFE"/>
      <stop offset="1" stop-color="#EEF4FF" stop-opacity="0"/>
    </radialGradient>
  </defs>
</svg>
